<?xml version="1.0" standalone="yes"?><!DOCTYPE svg PUBLIC "-//W3C//DTD SVG 1.1//EN" "http://www.w3.org/Graphics/SVG/1.1/DTD/svg11.dtd"[
<!ENTITY E47 'M 18.422 13 13.4357 18.5006 10.8556 15.9868 6.500101 20.5001 23.9571 20.48582 z '><!ENTITY E8 'stroke:none;fill-rule:evenodd;opacity:1;fill:rgb(255,255,255);'><!ENTITY E7 'M 11.529 25.444 20.7834 12.908 16.3203 12.908 18.355 4.7687 9.100601 17.3047 13.5637 17.3047 z '><!ENTITY E15 'M 10.824 9.4752 3.5613 15.0588 10.824 20.6107 10.81521 18.3247 6.519011 15.0267 10.82391 11.7422 z '><!ENTITY E30 'stroke:none;fill-rule:evenodd;opacity:1;fill:rgb(128,128,128);'><!ENTITY E10 'matrix(1.00 0.00 0.00 1.00 0.00 0.00 ) '><!ENTITY E49 'matrix(1.00 0.00 0.00 1.00 324.00 164.00 ) '><!ENTITY E53 'matrix(1.00 0.00 0.00 1.00 164.00 84.00 ) '><!ENTITY E6 'stroke:none;opacity:1;fill:rgb(155,91,179);'><!ENTITY E38 'M 5.5001 19.484 10.6493 19.484 16.2743 10.2485 19.3728 10.2485 M 14.6769 17.1481 16.3089 19.4828 19.2202 19.4828 M 5.500199 10.2437 10.7586 10.2437 12.1652 12.8707 '><!ENTITY E44 'matrix(1.00 0.00 0.00 1.00 324.00 4.00 ) '><!ENTITY E1 'stroke:rgb(169,169,169);fill:none;stroke-linecap:butt;stroke-miterlimit:9;opacity:1;stroke-width:1;stroke-linejoin:miter;'><!ENTITY E11 'matrix(1.00 0.00 0.00 1.00 644.00 164.00 ) '><!ENTITY E13 'matrix(1.00 0.00 0.00 1.00 564.00 4.00 ) '><!ENTITY E3 'M 10.158 33.2 C 3.4054 31.7591 -1.861 26.4692 -3.271 19.71 '><!ENTITY E4 'stroke:rgb(169,169,169);fill:none;stroke-linecap:butt;stroke-miterlimit:9;opacity:1;stroke-width:2;stroke-linejoin:miter;'><!ENTITY E20 'matrix(1.00 0.00 0.00 1.00 564.00 164.00 ) '><!ENTITY E36 'M 19.156 13.888 19.156 10.3647 19.156 6.841399 25.2585 10.3647 22.2072 12.1264 z '><!ENTITY E5 'matrix(1.00 0.00 0.00 1.00 644.00 4.00 ) '><!ENTITY E55 'matrix(1.00 0.00 0.00 1.00 84.00 4.00 ) '><!ENTITY E60 'matrix(1.00 0.00 0.00 1.00 4.00 4.00 ) '><!ENTITY E23 'matrix(1.00 0.00 0.00 1.00 484.00 4.00 ) '><!ENTITY E37 'M 19.156 22.97 19.156 19.4467 19.156 15.9234 25.2585 19.4467 22.2072 21.2084 z '><!ENTITY E40 'matrix(1.00 0.00 0.00 1.00 404.00 164.00 ) '><!ENTITY E33 'stroke:none;opacity:1;fill:rgb(255,255,255);'><!ENTITY E32 'M 16.849 10.062 23.4027 10.062 M 16.6038 19.6084 23.3505 19.6084 M 12.3075 17.1615 7.5719 21.8971 M 7.577335 17.152 12.31704 21.8917 M 6.564136 10.0047 13.30904 10.0047 M 9.936636 6.6288 9.936636 13.3806 '><!ENTITY E29 'M 15 0 C 15.40124 0 15.79355 0 16.1868 0.032679 L 17.4764 1.671279 C 18.19501 1.803959 18.878 1.976879 19.5521 2.217729 L 21.4286 1.483419 C 22.13968 1.823279 22.8289 2.226899 23.4726 2.670219 L 23.8493 4.621219 C 24.39461 5.086599 24.9133 5.605469 25.3788 6.150719 L 27.3298 6.494379 C 27.77262 7.137679 28.17707 7.860779 28.5166 8.57128 L 27.74584 10.44788 C 27.98674 11.12204 28.19601 11.80508 28.32852 12.52348 L 29.96712 13.81308 C 29.99807 14.2062 30.00009 14.59888 30.00009 14.99988 30.00009 15.39224 29.99671 15.76908 29.96712 16.15388 L 28.32852 17.43998 C 28.19832 18.14633 28.01721 18.85248 27.78226 19.51558 L 28.51657 21.42868 C 28.17593 22.14291 27.77461 22.82648 27.32977 23.47268 L 25.37877 23.81302 C 24.91321 24.35829 24.39455 24.87682 23.84927 25.34242 L 23.47257 27.32992 C 22.82847 27.77371 22.14007 28.17669 21.42857 28.51662 L 19.51567 27.74597 C 18.85121 27.98162 18.18377 28.19809 17.47627 28.32876 L 16.18677 29.93436 C 15.79348 29.965 15.40117 29.99982 14.99997 29.99982 14.59873 29.99982 14.17345 29.96607 13.78017 29.93436 L 12.55997 28.32876 C 11.86172 28.19999 11.14067 27.977 10.48427 27.74597 L 8.571372 28.51662 C 7.856242 28.17558 7.174472 27.7755 6.527372 27.32992 L 6.150662 25.30622 C 5.617232 24.84794 5.114162 24.34789 4.657562 23.81302 L 2.670162 23.47268 C 2.225282 22.82649 1.823962 22.14288 1.483362 21.42868 L 2.254122 19.51558 C 2.022912 18.85918 1.800192 18.13838 1.671442 17.43998 L 0.06584227 16.18678 C 0.03489427 15.79366 -9.272993E-05 15.4013 -9.272993E-05 14.99998 -9.272993E-05 14.59894 0.03489527 14.20625 0.06584227 13.81318 L 1.671442 12.52358 C 1.801892 11.81616 2.018542 11.14888 2.254122 10.48438 L 1.483362 8.571277 C 1.822922 7.860797 2.227392 7.137677 2.670162 6.494377 L 4.657562 6.150717 C 5.114192 5.615747 5.617242 5.115817 6.150662 4.657517 L 6.527372 2.670117 C 7.174102 2.224717 7.856672 1.824207 8.571372 1.483317 L 10.48427 2.217627 C 11.14757 1.982687 11.85387 1.801607 12.55997 1.671177 L 13.84607 0.0325768 C 14.23082 0.003004799 14.60761 -0.0001021996 14.99987 -0.0001021996 z '><!ENTITY E51 'matrix(1.00 0.00 0.00 1.00 244.00 84.00 ) '><!ENTITY E42 'matrix(1.00 0.00 0.00 1.00 404.00 244.00 ) '><!ENTITY E24 'M 20.824 23.115 20.824 7.098999 M 17.3572 17.48 17.3572 12.7339 M 13.8904 21.2046 13.8904 9.009602 M 10.4236 18.6248 10.4236 11.5896 M 6.9568 16.3923 6.9568 13.822 '><!ENTITY E27 'matrix(1.00 0.00 0.00 1.00 484.00 164.00 ) '><!ENTITY E16 'M 15.365 7.2336 C 15.34647 7.33547 15.32125 7.4371 15.31422 7.5375 14.41077 12.6441 13.49692 17.7495 12.59942 22.8575 12.59508 22.88635 12.6018 22.91223 12.59942 22.94062 L 14.62872 22.94062 C 14.70348 22.53324 14.73679 22.1026 14.8377 21.71462 15.68204 16.94102 16.5365 12.17012 17.3748 7.394619 17.38163 7.340435 17.37866 7.287239 17.3787 7.233579 z '><!ENTITY E17 'M 19.044 9.4746 26.3067 15.0582 19.044 20.6101 19.05279 18.3241 23.34899 15.0261 19.04409 11.7416 z '><!ENTITY E2 'stroke-dasharray:4.00 2.00 ;stroke:rgb(169,169,169);fill:none;stroke-linecap:butt;stroke-miterlimit:9;opacity:1;stroke-width:1;stroke-linejoin:miter;'><!ENTITY E35 'matrix(1.00 0.00 0.00 1.00 404.00 84.00 ) '><!ENTITY E14 'stroke:none;opacity:1;fill:rgb(68,154,223);'><!ENTITY E46 'matrix(1.00 0.00 0.00 1.00 324.00 84.00 ) '><!ENTITY E31 'matrix(1.00 0.00 0.00 1.00 404.00 4.00 ) '><!ENTITY E25 'stroke:rgb(255,255,255);fill:none;stroke-linecap:butt;stroke-miterlimit:9;opacity:1;stroke-width:2;stroke-linejoin:miter;'>
]><svg width="712.2711" height="292.8252" id="SvgGdi_output" xmlns="http://www.w3.org/2000/svg"><rect id="background" height="100.00%" style="fill:rgb(255,255,255);" width="100.00%" y="0.00" x="0.00" /><g style="shape-rendering:auto;" id="root_group"><line y1="19.00" style="&E1;" id="82" x2="640.00" y2="19.00" x1="598.00" /><line y1="179.00" style="&E1;" id="83" x2="640.00" y2="179.00" x1="598.00" /><line y1="19.00" style="&E1;" id="84" x2="560.00" y2="19.00" x1="518.00" /><line y1="179.00" style="&E1;" id="85" x2="560.00" y2="179.00" x1="518.00" /><line y1="19.00" style="&E2;" id="86" x2="480.00" y2="19.00" x1="438.00" /><line y1="99.00" style="&E1;" id="87" x2="480.00" y2="19.00" x1="438.00" /><line y1="179.00" style="&E2;" id="88" x2="480.00" y2="179.00" x1="438.00" /><line y1="259.00" style="&E1;" id="89" x2="480.00" y2="179.00" x1="438.00" /><line y1="19.00" style="&E1;" id="90" x2="400.00" y2="19.00" x1="358.00" /><line y1="99.00" style="&E1;" id="91" x2="400.00" y2="99.00" x1="358.00" /><line y1="99.00" style="&E1;" id="92" x2="400.00" y2="259.00" x1="358.00" /><line y1="179.00" style="&E1;" id="93" x2="400.00" y2="179.00" x1="358.00" /><line y1="19.00" style="&E1;" id="94" x2="320.00" y2="19.00" x1="278.00" /><line y1="99.00" style="&E1;" id="95" x2="320.00" y2="99.00" x1="278.00" /><line y1="179.00" style="&E1;" id="96" x2="320.00" y2="179.00" x1="278.00" /><line y1="19.00" style="&E1;" id="97" x2="240.00" y2="19.00" x1="198.00" /><line y1="99.00" style="&E1;" id="98" x2="240.00" y2="99.00" x1="198.00" /><line y1="179.00" style="&E1;" id="99" x2="240.00" y2="179.00" x1="198.00" /><line y1="19.00" style="&E1;" id="100" x2="160.00" y2="99.00" x1="118.00" /><line y1="19.00" style="&E1;" id="101" x2="160.00" y2="19.00" x1="118.00" /><line y1="19.00" style="&E1;" id="102" x2="160.00" y2="179.00" x1="118.00" /><line y1="19.00" style="&E1;" id="103" x2="80.00" y2="19.00" x1="38.00" /><path d="&E3;" style="&E4;" transform="&E5;" id="104" /><ellipse id="105" cy="15.00" cx="15.00" transform="&E5;" rx="15.00" ry="15.00" style="&E6;" /><path d="&E7;" style="&E8;" transform="&E5;" id="106" /><text id="107" transform="&E10;" x="644.00" y="39.00" style="stroke:none;clip-path:url(#109_text_clipper);font-family:Microsoft Sans Serif;fill:rgb(0,0,0);font-size:8.25pt;opacity:1;"><tspan dy="8.25pt" id="111">ServoOutput</tspan></text><path d="&E3;" style="&E4;" transform="&E11;" id="113" /><ellipse id="114" cy="15.00" cx="15.00" transform="&E11;" rx="15.00" ry="15.00" style="&E6;" /><path d="&E7;" style="&E8;" transform="&E11;" id="115" /><text id="116" transform="&E10;" x="644.00" y="199.00" style="stroke:none;clip-path:url(#118_text_clipper);font-family:Microsoft Sans Serif;fill:rgb(0,0,0);font-size:8.25pt;opacity:1;"><tspan dy="8.25pt" id="120">ServoOutput</tspan></text><ellipse id="122" cy="15.00" cx="15.00" transform="&E13;" rx="15.00" ry="15.00" style="&E14;" /><path d="&E15;" style="&E8;" transform="&E13;" id="123" /><path d="&E16;" style="&E8;" transform="&E13;" id="124" /><path d="&E17;" style="&E8;" transform="&E13;" id="125" /><text id="126" transform="&E10;" x="564.00" y="39.00" style="stroke:none;clip-path:url(#128_text_clipper);font-family:Microsoft Sans Serif;fill:rgb(0,0,0);font-size:8.25pt;opacity:1;"><tspan dy="8.25pt" id="130">Python</tspan></text><text id="132" transform="&E10;" x="564.00" y="51.45" style="stroke:none;clip-path:url(#134_text_clipper);font-family:Microsoft Sans Serif;fill:rgb(0,0,0);font-size:8.25pt;opacity:1;"><tspan dy="8.25pt" id="136">Transform</tspan></text><ellipse id="138" cy="15.00" cx="15.00" transform="&E20;" rx="15.00" ry="15.00" style="&E14;" /><path d="&E15;" style="&E8;" transform="&E20;" id="139" /><path d="&E16;" style="&E8;" transform="&E20;" id="140" /><path d="&E17;" style="&E8;" transform="&E20;" id="141" /><text id="142" transform="&E10;" x="564.00" y="199.00" style="stroke:none;clip-path:url(#144_text_clipper);font-family:Microsoft Sans Serif;fill:rgb(0,0,0);font-size:8.25pt;opacity:1;"><tspan dy="8.25pt" id="146">Python</tspan></text><text id="148" transform="&E10;" x="564.00" y="211.45" style="stroke:none;clip-path:url(#150_text_clipper);font-family:Microsoft Sans Serif;fill:rgb(0,0,0);font-size:8.25pt;opacity:1;"><tspan dy="8.25pt" id="152">Transform</tspan></text><ellipse id="154" cy="15.00" cx="15.00" transform="&E23;" rx="15.00" ry="15.00" style="&E14;" /><path d="&E24;" style="&E25;" transform="&E23;" id="155" /><text id="156" transform="&E10;" x="484.00" y="39.00" style="stroke:none;clip-path:url(#158_text_clipper);font-family:Microsoft Sans Serif;fill:rgb(0,0,0);font-size:8.25pt;opacity:1;"><tspan dy="8.25pt" id="160">Rescale</tspan></text><ellipse id="162" cy="15.00" cx="15.00" transform="&E27;" rx="15.00" ry="15.00" style="&E14;" /><path d="&E24;" style="&E25;" transform="&E27;" id="163" /><text id="164" transform="&E10;" x="484.00" y="199.00" style="stroke:none;clip-path:url(#166_text_clipper);font-family:Microsoft Sans Serif;fill:rgb(0,0,0);font-size:8.25pt;opacity:1;"><tspan dy="8.25pt" id="168">Rescale</tspan></text><path d="&E29;" style="&E30;" transform="&E31;" id="170" /><path d="&E32;" style="&E25;" transform="&E31;" id="171" /><ellipse id="172" cy="16.33" cx="19.93" transform="&E31;" rx="1.30" ry="1.30" style="&E33;" /><ellipse id="173" cy="22.83" cx="19.93" transform="&E31;" rx="1.30" ry="1.30" style="&E33;" /><text id="174" transform="&E10;" x="404.00" y="39.00" style="stroke:none;clip-path:url(#176_text_clipper);font-family:Microsoft Sans Serif;fill:rgb(0,0,0);font-size:8.25pt;opacity:1;"><tspan dy="8.25pt" id="178">Max</tspan></text><ellipse id="180" cy="15.00" cx="15.00" transform="&E35;" rx="15.00" ry="15.00" style="&E14;" /><path d="&E36;" style="&E8;" transform="&E35;" id="181" /><path d="&E37;" style="&E8;" transform="&E35;" id="182" /><path d="&E38;" style="&E25;" transform="&E35;" id="183" /><text id="184" transform="&E10;" x="404.00" y="119.00" style="stroke:none;clip-path:url(#186_text_clipper);font-family:Microsoft Sans Serif;fill:rgb(0,0,0);font-size:8.25pt;opacity:1;"><tspan dy="8.25pt" id="188">X</tspan></text><path d="&E29;" style="&E30;" transform="&E40;" id="190" /><path d="&E32;" style="&E25;" transform="&E40;" id="191" /><ellipse id="192" cy="16.33" cx="19.93" transform="&E40;" rx="1.30" ry="1.30" style="&E33;" /><ellipse id="193" cy="22.83" cx="19.93" transform="&E40;" rx="1.30" ry="1.30" style="&E33;" /><text id="194" transform="&E10;" x="404.00" y="199.00" style="stroke:none;clip-path:url(#196_text_clipper);font-family:Microsoft Sans Serif;fill:rgb(0,0,0);font-size:8.25pt;opacity:1;"><tspan dy="8.25pt" id="198">Max</tspan></text><ellipse id="200" cy="15.00" cx="15.00" transform="&E42;" rx="15.00" ry="15.00" style="&E14;" /><path d="&E36;" style="&E8;" transform="&E42;" id="201" /><path d="&E37;" style="&E8;" transform="&E42;" id="202" /><path d="&E38;" style="&E25;" transform="&E42;" id="203" /><text id="204" transform="&E10;" x="404.00" y="279.00" style="stroke:none;clip-path:url(#206_text_clipper);font-family:Microsoft Sans Serif;fill:rgb(0,0,0);font-size:8.25pt;opacity:1;"><tspan dy="8.25pt" id="208">Y</tspan></text><ellipse id="210" cy="15.00" cx="15.00" transform="&E44;" rx="15.00" ry="15.00" style="&E14;" /><path d="&E36;" style="&E8;" transform="&E44;" id="211" /><path d="&E37;" style="&E8;" transform="&E44;" id="212" /><path d="&E38;" style="&E25;" transform="&E44;" id="213" /><text id="214" transform="&E10;" x="324.00" y="39.00" style="stroke:none;clip-path:url(#216_text_clipper);font-family:Microsoft Sans Serif;fill:rgb(0,0,0);font-size:8.25pt;opacity:1;"><tspan dy="8.25pt" id="218">Width</tspan></text><ellipse id="220" cy="15.00" cx="15.00" transform="&E46;" rx="15.00" ry="15.00" style="&E14;" /><path d="&E47;" style="&E8;" transform="&E46;" id="221" /><ellipse id="222" cy="10.96" cx="10.92" transform="&E46;" rx="2.75" ry="2.75" style="&E33;" /><text id="223" transform="&E10;" x="324.00" y="119.00" style="stroke:none;clip-path:url(#225_text_clipper);font-family:Microsoft Sans Serif;fill:rgb(0,0,0);font-size:8.25pt;opacity:1;"><tspan dy="8.25pt" id="227">Centroid</tspan></text><ellipse id="229" cy="15.00" cx="15.00" transform="&E49;" rx="15.00" ry="15.00" style="&E14;" /><path d="&E36;" style="&E8;" transform="&E49;" id="230" /><path d="&E37;" style="&E8;" transform="&E49;" id="231" /><path d="&E38;" style="&E25;" transform="&E49;" id="232" /><text id="233" transform="&E10;" x="324.00" y="199.00" style="stroke:none;clip-path:url(#235_text_clipper);font-family:Microsoft Sans Serif;fill:rgb(0,0,0);font-size:8.25pt;opacity:1;"><tspan dy="8.25pt" id="237">Height</tspan></text><line y1="19.00" style="&E1;" id="239" x2="278.00" y2="19.00" x1="240.00" /><ellipse id="240" cy="15.00" cx="15.00" transform="&E51;" rx="15.00" ry="15.00" style="&E14;" /><path d="&E47;" style="&E8;" transform="&E51;" id="241" /><ellipse id="242" cy="10.96" cx="10.92" transform="&E51;" rx="2.75" ry="2.75" style="&E33;" /><text id="243" transform="&E10;" x="244.00" y="119.00" style="stroke:none;clip-path:url(#245_text_clipper);font-family:Microsoft Sans Serif;fill:rgb(0,0,0);font-size:8.25pt;opacity:1;"><tspan dy="8.25pt" id="247">HsvThreshold</tspan></text><line y1="179.00" style="&E1;" id="249" x2="278.00" y2="179.00" x1="240.00" /><line y1="19.00" style="&E1;" id="250" x2="198.00" y2="19.00" x1="160.00" /><ellipse id="251" cy="15.00" cx="15.00" transform="&E53;" rx="15.00" ry="15.00" style="&E14;" /><path d="&E47;" style="&E8;" transform="&E53;" id="252" /><ellipse id="253" cy="10.96" cx="10.92" transform="&E53;" rx="2.75" ry="2.75" style="&E33;" /><text id="254" transform="&E10;" x="164.00" y="119.00" style="stroke:none;clip-path:url(#256_text_clipper);font-family:Microsoft Sans Serif;fill:rgb(0,0,0);font-size:8.25pt;opacity:1;"><tspan dy="8.25pt" id="258">ConvertColor</tspan></text><line y1="179.00" style="&E1;" id="260" x2="198.00" y2="179.00" x1="160.00" /><ellipse id="261" cy="15.00" cx="15.00" transform="&E55;" rx="15.00" ry="15.00" style="stroke:none;opacity:1;fill:rgb(238,192,75);" /><path style="&E8;" transform="&E55;" id="262" d="M 12.246 6.0137 12.246 6.019559 C 12.05806 6.020259 11.89471 6.040434 11.76748 6.066434 10.86869 6.352735 10.89631 6.934374 9.87688 7.685534 8.863379 8.264335 8.35338 7.819914 7.61518 8.419914 6.87845 9.015514 7.39292 10.38251 7.08393 10.64841 6.77722 11.18001 5.82553 11.65471 5.65233 12.32611 5.50916 13.18481 6.04191 13.79701 6.02147 14.53311 6.08287 15.14641 5.41127 15.49489 5.5078 15.99211 5.79702 16.80421 6.35438 17.29221 6.6172 17.51751 6.663351 17.54951 6.700028 17.5985 6.714856 17.6015 6.790713 17.792 6.858586 17.98645 6.955086 18.16595 6.949606 18.13995 6.948576 18.11382 6.943367 18.08782 6.998228 18.30542 7.055077 18.52401 7.132816 18.73821 8.683116 22.09901 12.81412 24.68611 17.34182 24.11711 19.54102 23.84771 22.82442 22.33171 24.16602 18.73821 23.22044 19.58671 21.53152 20.32421 20.77732 20.38081 23.33002 19.10511 24.70712 16.93741 24.32031 13.97461 23.79154 15.23341 23.09341 16.20131 22.22071 16.86521 24.07451 13.97551 23.75691 12.48131 22.38478 10.83981 23.36615 13.53881 22.09719 16.53431 19.33208 18.66401 20.45238 18.78541 21.51657 18.51614 22.50198 17.71284 21.01318 19.37354 19.14968 20.20834 17.01368 20.43554 18.03358 21.30254 19.01818 21.69454 19.95898 21.52734 17.34458 22.24884 15.15478 21.45428 12.49018 18.80074 12.3507 19.51504 13.10514 20.62754 13.88278 21.33784 9.373278 19.38284 8.976177 13.29584 14.46872 11.79294 14.47202 11.79294 14.47518 11.79384 14.47848 11.79294 17.74978 13.70674 21.86528 13.58084 22.05078 12.34372 22.50885 10.86082 19.96508 7.805223 16.16208 7.007823 15.4618 6.871123 14.79228 6.817344 14.15428 6.835943 14.16706 6.835943 14.17858 6.836182 14.19139 6.826178 13.58399 6.177278 12.80989 6.011678 12.24609 6.013678 z M 17.17769 9.046878 C 17.72373 9.046878 18.22259 9.543848 18.22259 10.08988 18.22259 10.63598 17.72371 11.13288 17.17769 11.13288 16.63165 11.13288 16.13469 10.63601 16.13469 10.08988 16.13474 9.543879 16.63162 9.046778 17.17769 9.046878 z " /><text id="263" transform="&E10;" x="84.00" y="39.00" style="stroke:none;clip-path:url(#265_text_clipper);font-family:Microsoft Sans Serif;fill:rgb(0,0,0);font-size:8.25pt;opacity:1;"><tspan dy="8.25pt" id="267">GateInterval</tspan></text><path style="&E4;" transform="&E60;" id="269" d="M 31.179 5.2 C 34.9985 11.0918 34.9814 18.682 31.13552 24.557 " /><ellipse id="270" cy="15.00" cx="15.00" transform="&E60;" rx="15.00" ry="15.00" style="stroke:none;opacity:1;fill:rgb(91,178,126);" /><path style="&E8;" transform="&E60;" id="271" d="M 23.75 9.1 19.5587 11.5211 19.5587 18.3937 23.75 20.8147 z " /><path style="&E8;" transform="&E60;" id="272" d="M 8.6927 9.2 15.7194 9.2 C 17.19 9.2 18.3739 10.4337 18.3739 11.9661 L 18.3739 17.8234 C 18.3739 19.3558 17.19 20.5893 15.7194 20.5893 L 8.692701 20.5893 C 7.222101 20.5893 6.038201 19.3558 6.038201 17.8234 L 6.038201 11.9661 C 6.038201 10.4337 7.222101 9.199999 8.692701 9.199999 z " /><text id="273" transform="&E10;" x="4.00" y="39.00" style="stroke:none;clip-path:url(#275_text_clipper);font-family:Microsoft Sans Serif;fill:rgb(0,0,0);font-size:8.25pt;opacity:1;"><tspan dy="8.25pt" id="277">Camera</tspan></text><text id="279" transform="&E10;" x="4.00" y="51.45" style="stroke:none;clip-path:url(#281_text_clipper);font-family:Microsoft Sans Serif;fill:rgb(0,0,0);font-size:8.25pt;opacity:1;"><tspan dy="8.25pt" id="283">Capture</tspan></text></g><defs id="clips_hatches_and_gradients"><clipPath id="109_text_clipper"><rect x="644.00" y="39.00" width="67.27" height="13.83" id="110" /></clipPath><clipPath id="118_text_clipper"><rect x="644.00" y="199.00" width="67.27" height="13.83" id="119" /></clipPath><clipPath id="128_text_clipper"><rect x="564.00" y="39.00" width="55.28" height="27.65" id="129" /></clipPath><clipPath id="134_text_clipper"><rect x="564.00" y="51.45" width="55.28" height="27.65" id="135" /></clipPath><clipPath id="144_text_clipper"><rect x="564.00" y="199.00" width="55.28" height="27.65" id="145" /></clipPath><clipPath id="150_text_clipper"><rect x="564.00" y="211.45" width="55.28" height="27.65" id="151" /></clipPath><clipPath id="158_text_clipper"><rect x="484.00" y="39.00" width="44.66" height="13.83" id="159" /></clipPath><clipPath id="166_text_clipper"><rect x="484.00" y="199.00" width="44.66" height="13.83" id="167" /></clipPath><clipPath id="176_text_clipper"><rect x="404.00" y="39.00" width="25.07" height="13.83" id="177" /></clipPath><clipPath id="186_text_clipper"><rect x="404.00" y="119.00" width="11.22" height="13.83" id="187" /></clipPath><clipPath id="196_text_clipper"><rect x="404.00" y="199.00" width="25.07" height="13.83" id="197" /></clipPath><clipPath id="206_text_clipper"><rect x="404.00" y="279.00" width="11.22" height="13.83" id="207" /></clipPath><clipPath id="216_text_clipper"><rect x="324.00" y="39.00" width="32.69" height="13.83" id="217" /></clipPath><clipPath id="225_text_clipper"><rect x="324.00" y="119.00" width="46.55" height="13.83" id="226" /></clipPath><clipPath id="235_text_clipper"><rect x="324.00" y="199.00" width="36.48" height="13.83" id="236" /></clipPath><clipPath id="245_text_clipper"><rect x="244.00" y="119.00" width="73.63" height="13.83" id="246" /></clipPath><clipPath id="256_text_clipper"><rect x="164.00" y="119.00" width="70.47" height="13.83" id="257" /></clipPath><clipPath id="265_text_clipper"><rect x="84.00" y="39.00" width="65.44" height="13.83" id="266" /></clipPath><clipPath id="275_text_clipper"><rect x="4.00" y="39.00" width="43.97" height="27.65" id="276" /></clipPath><clipPath id="281_text_clipper"><rect x="4.00" y="51.45" width="43.97" height="27.65" id="282" /></clipPath></defs></svg>