<?xml version="1.0" standalone="yes"?><!DOCTYPE svg PUBLIC "-//W3C//DTD SVG 1.1//EN" "http://www.w3.org/Graphics/SVG/1.1/DTD/svg11.dtd"[
<!ENTITY E15 'matrix(1.00 0.00 0.00 1.00 84.00 4.00 ) '><!ENTITY E6 'stroke:none;opacity:1;fill:rgb(255,255,255);'><!ENTITY E3 'stroke:rgb(169,169,169);fill:none;stroke-linecap:butt;stroke-miterlimit:9;opacity:1;stroke-width:2;stroke-linejoin:miter;'><!ENTITY E1 'stroke:rgb(169,169,169);fill:none;stroke-linecap:butt;stroke-miterlimit:9;opacity:1;stroke-width:1;stroke-linejoin:miter;'><!ENTITY E2 'M 10.158 33.2 C 3.4054 31.7591 -1.861 26.4692 -3.271 19.71 '><!ENTITY E4 'matrix(1.00 0.00 0.00 1.00 244.00 4.00 ) '><!ENTITY E10 'matrix(1.00 0.00 0.00 1.00 164.00 4.00 ) '><!ENTITY E14 'M 31.179 5.2 C 34.9985 11.0918 34.9814 18.682 31.13552 24.557 '><!ENTITY E20 'matrix(1.00 0.00 0.00 1.00 4.00 4.00 ) '><!ENTITY E5 'stroke:none;opacity:1;fill:rgb(155,91,179);'><!ENTITY E16 'stroke:none;opacity:1;fill:rgb(91,178,126);'><!ENTITY E8 'matrix(1.00 0.00 0.00 1.00 0.00 0.00 ) '>
]><svg width="292.5651" height="65.14218" id="SvgGdi_output" xmlns="http://www.w3.org/2000/svg"><rect id="background" height="100.00%" style="fill:rgb(255,255,255);" width="100.00%" y="0.00" x="0.00" /><g style="shape-rendering:auto;" id="root_group"><line y1="19.00" style="&E1;" id="249" x2="240.00" y2="19.00" x1="198.00" /><line y1="19.00" style="&E1;" id="250" x2="160.00" y2="19.00" x1="118.00" /><line y1="19.00" style="&E1;" id="251" x2="80.00" y2="19.00" x1="38.00" /><path d="&E2;" style="&E3;" transform="&E4;" id="252" /><ellipse id="253" cy="15.00" cx="15.00" transform="&E4;" rx="15.00" ry="15.00" style="&E5;" /><ellipse id="254" cy="9.06" cx="15.01" transform="&E4;" rx="3.50" ry="3.50" style="&E6;" /><ellipse id="255" cy="18.49" cx="9.12" transform="&E4;" rx="3.50" ry="3.50" style="&E6;" /><ellipse id="256" cy="18.46" cx="20.88" transform="&E4;" rx="3.50" ry="3.50" style="&E6;" /><text id="257" transform="&E8;" x="244.00" y="39.00" style="stroke:none;clip-path:url(#259_text_clipper);font-family:Microsoft Sans Serif;fill:rgb(0,0,0);font-size:7.80pt;opacity:1;"><tspan dy="7.80pt" id="261">Workflow</tspan></text><text id="263" transform="&E8;" x="244.00" y="50.77" style="stroke:none;clip-path:url(#265_text_clipper);font-family:Microsoft Sans Serif;fill:rgb(0,0,0);font-size:7.80pt;opacity:1;"><tspan dy="7.80pt" id="267">Output</tspan></text><path d="&E2;" style="&E3;" transform="&E10;" id="269" /><ellipse id="270" cy="15.00" cx="15.00" transform="&E10;" rx="15.00" ry="15.00" style="&E5;" /><path transform="&E10;" id="271" d="M 11.529 25.444 20.7834 12.908 16.3203 12.908 18.355 4.7687 9.100601 17.3047 13.5637 17.3047 z " style="stroke:none;fill-rule:evenodd;opacity:1;fill:rgb(255,255,255);" /><text id="272" transform="&E8;" x="164.00" y="39.00" style="stroke:none;clip-path:url(#274_text_clipper);font-family:Microsoft Sans Serif;fill:rgb(0,0,0);font-size:7.80pt;opacity:1;"><tspan dy="7.80pt" id="276">DigitalOutput</tspan></text><path d="&E14;" style="&E3;" transform="&E15;" id="278" /><ellipse id="279" cy="15.00" cx="15.00" transform="&E15;" rx="15.00" ry="15.00" style="&E16;" /><path transform="&E15;" id="280" d="M 16.849 10.062 23.4027 10.062 M 16.6038 19.6084 23.3505 19.6084 M 12.3075 17.1615 7.5719 21.8971 M 7.577335 17.152 12.31704 21.8917 M 6.564136 10.0047 13.30904 10.0047 M 9.936636 6.6288 9.936636 13.3806 " style="stroke:rgb(255,255,255);fill:none;stroke-linecap:butt;stroke-miterlimit:9;opacity:1;stroke-width:2;stroke-linejoin:miter;" /><ellipse id="281" cy="16.33" cx="19.93" transform="&E15;" rx="1.30" ry="1.30" style="&E6;" /><ellipse id="282" cy="22.83" cx="19.93" transform="&E15;" rx="1.30" ry="1.30" style="&E6;" /><text id="283" transform="&E8;" x="84.00" y="39.00" style="stroke:none;clip-path:url(#285_text_clipper);font-family:Microsoft Sans Serif;fill:rgb(0,0,0);font-size:7.80pt;opacity:1;"><tspan dy="7.80pt" id="287">Boolean</tspan></text><path d="&E14;" style="&E3;" transform="&E20;" id="289" /><ellipse id="290" cy="15.00" cx="15.00" transform="&E20;" rx="15.00" ry="15.00" style="&E16;" /><ellipse id="291" cy="9.06" cx="15.01" transform="&E20;" rx="3.50" ry="3.50" style="&E6;" /><ellipse id="292" cy="18.49" cx="9.12" transform="&E20;" rx="3.50" ry="3.50" style="&E6;" /><ellipse id="293" cy="18.46" cx="20.88" transform="&E20;" rx="3.50" ry="3.50" style="&E6;" /><text id="294" transform="&E8;" x="4.00" y="39.00" style="stroke:none;clip-path:url(#296_text_clipper);font-family:Microsoft Sans Serif;fill:rgb(0,0,0);font-size:7.80pt;opacity:1;"><tspan dy="7.80pt" id="298">Source1</tspan></text></g><defs id="clips_hatches_and_gradients"><clipPath id="259_text_clipper"><rect x="244.00" y="39.00" width="47.57" height="26.14" id="260" /></clipPath><clipPath id="265_text_clipper"><rect x="244.00" y="50.77" width="47.57" height="26.14" id="266" /></clipPath><clipPath id="274_text_clipper"><rect x="164.00" y="39.00" width="65.57" height="13.07" id="275" /></clipPath><clipPath id="285_text_clipper"><rect x="84.00" y="39.00" width="42.84" height="13.07" id="286" /></clipPath><clipPath id="296_text_clipper"><rect x="4.00" y="39.00" width="43.36" height="13.07" id="297" /></clipPath></defs></svg>